<mxfile host="app.diagrams.net" modified="2023-03-27T21:34:39.063Z" agent="5.0 (Macintosh; Intel Mac OS X 10_15_7) AppleWebKit/537.36 (KHTML, like Gecko) Chrome/111.0.0.0 Safari/537.36" etag="BAz6eLLtuMLYsZF6YiLl" version="20.5.3" type="github">
  <diagram id="qnMVmBV2hYY5-hSCUngv" name="Page-1">
    <mxGraphModel dx="1186" dy="1579" grid="1" gridSize="10" guides="1" tooltips="1" connect="1" arrows="1" fold="1" page="1" pageScale="1" pageWidth="850" pageHeight="1100" math="0" shadow="0">
      <root>
        <mxCell id="0" />
        <mxCell id="1" parent="0" />
        <mxCell id="YY6FUyqzRRnV67kugwKh-1" value="" style="ellipse;shape=cloud;whiteSpace=wrap;html=1;" vertex="1" parent="1">
          <mxGeometry x="110" y="50" width="120" height="80" as="geometry" />
        </mxCell>
        <mxCell id="YY6FUyqzRRnV67kugwKh-2" value="&lt;meta charset=&quot;utf-8&quot;&gt;&lt;b id=&quot;docs-internal-guid-ec9057b9-7fff-0306-7dd4-872f6027e3c1&quot; style=&quot;font-weight:normal;&quot;&gt;&lt;span style=&quot;font-size: 11pt; font-family: &amp;quot;Open Sans&amp;quot;, sans-serif; color: rgb(0, 0, 0); background-color: transparent; font-weight: 400; font-style: normal; font-variant: normal; text-decoration: none; vertical-align: baseline;&quot;&gt;&lt;span style=&quot;border:none;display:inline-block;overflow:hidden;width:165px;height:132px;&quot;&gt;&lt;img style=&quot;margin-left:0px;margin-top:0px;&quot; height=&quot;132&quot; width=&quot;165&quot; src=&quot;https://lh5.googleusercontent.com/9m-AnP4AKb3RQC15N-5MNuFubqpmesSrfy2HzJ5Zic9hc75GTSaR5unC1AWK4_yq78tnzkhIqeFN_mzSe2EAce5IuXODJ0Zukc_ajFt5CDuEhB2Uvd3rGLbi__or6eMzPl0IXsCTb3IxIJ3j0tQx0A&quot;&gt;&lt;/span&gt;&lt;/span&gt;&lt;/b&gt;" style="text;whiteSpace=wrap;html=1;" vertex="1" parent="1">
          <mxGeometry x="325" y="40" width="200" height="160" as="geometry" />
        </mxCell>
        <mxCell id="YY6FUyqzRRnV67kugwKh-4" value="&lt;meta charset=&quot;utf-8&quot;&gt;&lt;b id=&quot;docs-internal-guid-86a9f8b5-7fff-b726-0e0e-b6d510e635d3&quot; style=&quot;font-weight:normal;&quot;&gt;&lt;span style=&quot;font-size: 11pt; font-family: &amp;quot;Open Sans&amp;quot;, sans-serif; color: rgb(0, 0, 0); background-color: transparent; font-weight: 400; font-style: normal; font-variant: normal; text-decoration: none; vertical-align: baseline;&quot;&gt;&lt;span style=&quot;border:none;display:inline-block;overflow:hidden;width:331px;height:112px;&quot;&gt;&lt;img style=&quot;margin-left:0px;margin-top:0px;&quot; height=&quot;112&quot; width=&quot;331&quot; src=&quot;https://lh6.googleusercontent.com/z9M6Ii7NiepqGyi_NRELWmHhVSVjxXRSfuTuEwBg_bwP5iZnZBB5aKnWC5lb2Iw_c00kY_eVqPo5DVyb7tELnmnA-k-wu0qziveCLgL5FTtvHdDZYP_YyI7sE0F3w-e4SJ5426UM97XBGPJlpLNwnQ&quot;&gt;&lt;/span&gt;&lt;/span&gt;&lt;/b&gt;" style="text;whiteSpace=wrap;html=1;" vertex="1" parent="1">
          <mxGeometry x="245" y="290" width="360" height="140" as="geometry" />
        </mxCell>
        <mxCell id="YY6FUyqzRRnV67kugwKh-3" value="&lt;meta charset=&quot;utf-8&quot;&gt;&lt;b id=&quot;docs-internal-guid-cf1c4af5-7fff-40eb-427c-cf8ca551cbd2&quot; style=&quot;font-weight:normal;&quot;&gt;&lt;span style=&quot;font-size: 11pt; font-family: &amp;quot;Open Sans&amp;quot;, sans-serif; color: rgb(0, 0, 0); background-color: transparent; font-weight: 400; font-style: normal; font-variant: normal; text-decoration: none; vertical-align: baseline;&quot;&gt;&lt;span style=&quot;border:none;display:inline-block;overflow:hidden;width:167px;height:82px;&quot;&gt;&lt;img style=&quot;margin-left:0px;margin-top:0px;&quot; height=&quot;82&quot; width=&quot;167&quot; src=&quot;https://lh5.googleusercontent.com/aqHTk6ve-ny43-jvOSNYIKXtJYL_6rbBpZJ4KS-kE6yLDsoLTZgNcPwmjsjdD58An1h0R_xzgjGI2PmGbYXerKVuU0hRnYll_CPgFSIVhCNwKLjhj9Pz-cUAAg_ZPmCqTiMvgjdNlDPb6CjR96SVvkc&quot;&gt;&lt;/span&gt;&lt;/span&gt;&lt;/b&gt;" style="text;whiteSpace=wrap;html=1;" vertex="1" parent="1">
          <mxGeometry x="600" y="65" width="200" height="85" as="geometry" />
        </mxCell>
        <mxCell id="YY6FUyqzRRnV67kugwKh-7" value="&lt;meta charset=&quot;utf-8&quot;&gt;&lt;b id=&quot;docs-internal-guid-847d6333-7fff-15d9-5691-a022d7586469&quot; style=&quot;font-weight:normal;&quot;&gt;&lt;span style=&quot;font-size: 11pt; font-family: &amp;quot;Open Sans&amp;quot;, sans-serif; color: rgb(0, 0, 0); background-color: transparent; font-weight: 400; font-style: normal; font-variant: normal; text-decoration: none; vertical-align: baseline;&quot;&gt;&lt;span style=&quot;border:none;display:inline-block;overflow:hidden;width:139px;height:148px;&quot;&gt;&lt;img style=&quot;margin-left:0px;margin-top:0px;&quot; height=&quot;148&quot; width=&quot;139&quot; src=&quot;https://lh6.googleusercontent.com/kZc_RfhgRk3IhtTUohc27uz17CS9SNr5CQoUTq88pp8sy7xwX-Gzrn1rxbOI2g1W6Q1QAxkQuSCtryAVHDSph3WJZyc6lCmFyixJQ_iie-LWhDxuY3BKcGm0AYVBjtsXxmsdrwVToIE6uZA_1qKvOOc&quot;&gt;&lt;/span&gt;&lt;/span&gt;&lt;/b&gt;" style="text;whiteSpace=wrap;html=1;movable=1;resizable=1;rotatable=1;deletable=1;editable=1;connectable=1;" vertex="1" parent="1">
          <mxGeometry x="50" y="500" width="130" height="180" as="geometry" />
        </mxCell>
        <mxCell id="YY6FUyqzRRnV67kugwKh-8" value="&lt;meta charset=&quot;utf-8&quot;&gt;&lt;b id=&quot;docs-internal-guid-847d6333-7fff-15d9-5691-a022d7586469&quot; style=&quot;font-weight:normal;&quot;&gt;&lt;span style=&quot;font-size: 11pt; font-family: &amp;quot;Open Sans&amp;quot;, sans-serif; color: rgb(0, 0, 0); background-color: transparent; font-weight: 400; font-style: normal; font-variant: normal; text-decoration: none; vertical-align: baseline;&quot;&gt;&lt;span style=&quot;border:none;display:inline-block;overflow:hidden;width:139px;height:148px;&quot;&gt;&lt;img style=&quot;margin-left:0px;margin-top:0px;&quot; height=&quot;148&quot; width=&quot;139&quot; src=&quot;https://lh6.googleusercontent.com/kZc_RfhgRk3IhtTUohc27uz17CS9SNr5CQoUTq88pp8sy7xwX-Gzrn1rxbOI2g1W6Q1QAxkQuSCtryAVHDSph3WJZyc6lCmFyixJQ_iie-LWhDxuY3BKcGm0AYVBjtsXxmsdrwVToIE6uZA_1qKvOOc&quot;&gt;&lt;/span&gt;&lt;/span&gt;&lt;/b&gt;" style="text;whiteSpace=wrap;html=1;" vertex="1" parent="1">
          <mxGeometry x="50" y="660" width="130" height="180" as="geometry" />
        </mxCell>
        <mxCell id="YY6FUyqzRRnV67kugwKh-9" value="&lt;meta charset=&quot;utf-8&quot;&gt;&lt;b id=&quot;docs-internal-guid-d420139c-7fff-d299-5c18-496b54ed61c8&quot; style=&quot;font-weight:normal;&quot;&gt;&lt;span style=&quot;font-size: 11pt; font-family: &amp;quot;Open Sans&amp;quot;, sans-serif; color: rgb(0, 0, 0); background-color: transparent; font-weight: 400; font-style: normal; font-variant: normal; text-decoration: none; vertical-align: baseline;&quot;&gt;&lt;span style=&quot;border:none;display:inline-block;overflow:hidden;width:395px;height:98px;&quot;&gt;&lt;img style=&quot;margin-left:0px;margin-top:0px;&quot; height=&quot;98&quot; width=&quot;395&quot; src=&quot;https://lh6.googleusercontent.com/cgqI3ddxPyihhOQVuy8a9S9RgCuEptpHPLtrWwdOEed7ZucaVWMRprU1wHw-z2N2_RncYDObDfyiq7BOkkGEpZsKRYjhEnfL9va8OLn318ioCAj-eG6ZUMrV-OWb8J6d3zSHYP8XoRS-9wuOUifn3Sc&quot;&gt;&lt;/span&gt;&lt;/span&gt;&lt;/b&gt;" style="text;whiteSpace=wrap;html=1;" vertex="1" parent="1">
          <mxGeometry x="360" y="510" width="430" height="130" as="geometry" />
        </mxCell>
        <mxCell id="YY6FUyqzRRnV67kugwKh-10" value="&lt;meta charset=&quot;utf-8&quot;&gt;&lt;b id=&quot;docs-internal-guid-d420139c-7fff-d299-5c18-496b54ed61c8&quot; style=&quot;font-weight:normal;&quot;&gt;&lt;span style=&quot;font-size: 11pt; font-family: &amp;quot;Open Sans&amp;quot;, sans-serif; color: rgb(0, 0, 0); background-color: transparent; font-weight: 400; font-style: normal; font-variant: normal; text-decoration: none; vertical-align: baseline;&quot;&gt;&lt;span style=&quot;border:none;display:inline-block;overflow:hidden;width:395px;height:98px;&quot;&gt;&lt;img style=&quot;margin-left:0px;margin-top:0px;&quot; height=&quot;98&quot; width=&quot;395&quot; src=&quot;https://lh6.googleusercontent.com/cgqI3ddxPyihhOQVuy8a9S9RgCuEptpHPLtrWwdOEed7ZucaVWMRprU1wHw-z2N2_RncYDObDfyiq7BOkkGEpZsKRYjhEnfL9va8OLn318ioCAj-eG6ZUMrV-OWb8J6d3zSHYP8XoRS-9wuOUifn3Sc&quot;&gt;&lt;/span&gt;&lt;/span&gt;&lt;/b&gt;" style="text;whiteSpace=wrap;html=1;" vertex="1" parent="1">
          <mxGeometry x="375" y="690" width="430" height="130" as="geometry" />
        </mxCell>
        <mxCell id="YY6FUyqzRRnV67kugwKh-11" value="" style="shape=image;verticalLabelPosition=bottom;labelBackgroundColor=default;verticalAlign=top;aspect=fixed;imageAspect=0;image=data:image/png,iVBORw0KGgoAAAANSUhEUgAAAaYAAACeCAYAAAB5L653AAAKqWlDQ1BJQ0MgUHJvZmlsZQAASImVlgdQk9kWx+/3pYeElhDphN6ktwBSQmgBlF5FJSQBQokxJICIncUVWAsqIqAs6KKIgmsBZC2IBduiWMC+IIuAsi4WREXlfcAQdvfNe2/embnf/c35zj33nDv3zvwBIJM4IlE6rAhAhlAiDvPzosfExtFxgwACaKAENIA2h5spYoaEBAHEZue/24duJBqxuxZTuf79/381JR4/kwsAFIJwIi+Tm4HwSWS84IrEEgBQlYhfP1simuI2hKlipECE701x8gwPTXHiDH+ZjokIYwGARrrCkzgccTIAJE3ET8/iJiN5SAsQthbyBEKEp+p1z8hYzkP4CMImSIwI4an8jMS/5En+W85EWU4OJ1nGM71MG95bkClK56z8P4/jf1tGunR2DyNkkFLE/mHILI+c2YO05YEyFiYuCp5lAW86fppTpP6Rs8zNZMXNMo/jHShbm74oaJaTBL5sWR4JO2KW+Zk+4bMsXh4m2ytJzGLOMkc8t680LVLmT+GzZflzUyKiZzlLELVoljPTwgPnYlgyv1gaJqufL/TzmtvXV9Z7RuZf+hWwZWslKRH+st45c/Xzhcy5nJkxstp4fG+fuZhIWbxI4iXbS5QeIovnp/vJ/JlZ4bK1EuRCzq0NkZ1hKicgZJZBJLADtiAMOABnkAOAhJ8jmWqCtVy0UixITpHQmcjr4tPZQq7lfLqtta0dAFNvdeYqvKNNv0GIdn3OJ/EDwPUNAh/mfIvXAtDYBYCy5ZzPGLnTVHcA2ghcqThrxoee+mAAESgAKlAD2kAfmAALpD5H4Ao8gQ8IAMEgAsSCpYALUkAGEINskAfWgwJQBLaBXaAcVIH94BA4Co6DZnAGXABXwA1wG9wHj0EvGACvwCj4ACYgCMJBZIgCqUE6kCFkDtlCDMgd8oGCoDAoFkqAkiEhJIXyoI1QEVQClUPVUB30M3QaugBdg7qgh1AfNAy9hT7DKJgEU2Et2Ai2ghkwEw6EI+AlcDK8As6F8+EtcBlcAx+Bm+AL8A34PtwLv4LHUAAlh6KhdFEWKAaKhQpGxaGSUGLUGlQhqhRVg2pAtaI6UHdRvagR1Cc0Fk1B09EWaFe0PzoSzUWvQK9BF6PL0YfQTehL6LvoPvQo+huGjNHEmGNcMGxMDCYZk40pwJRiajGnMJcx9zEDmA9YLJaGNcY6Yf2xsdhU7CpsMXYvthHbhu3C9mPHcDicGs4c54YLxnFwElwBbg/uCO487g5uAPcRL4fXwdviffFxeCF+A74Ufxh/Dn8HP4ifICgSDAkuhGACj7CSsJVwgNBKuEUYIEwQlYjGRDdiBDGVuJ5YRmwgXiY+Ib6Tk5PTk3OWC5UTyK2TK5M7JndVrk/uE0mZZEZikeJJUtIW0kFSG+kh6R2ZTDYie5LjyBLyFnId+SL5GfmjPEXeUp4tz5NfK18h3yR/R/61AkHBUIGpsFQhV6FU4YTCLYURRYKikSJLkaO4RrFC8bRij+KYEkXJRilYKUOpWOmw0jWlIWWcspGyjzJPOV95v/JF5X4KiqJPYVG4lI2UA5TLlAEqlmpMZVNTqUXUo9RO6qiKsoq9SpRKjkqFylmVXhqKZkRj09JpW2nHad20z/O05jHn8edtntcw7868cVUNVU9VvmqhaqPqfdXPanQ1H7U0te1qzWpP1dHqZuqh6tnq+9Qvq49oUDVcNbgahRrHNR5pwppmmmGaqzT3a97UHNPS1vLTEmnt0bqoNaJN0/bUTtXeqX1Oe1iHouOuI9DZqXNe5yVdhc6kp9PL6Jfoo7qauv66Ut1q3U7dCT1jvUi9DXqNek/1ifoM/ST9nfrt+qMGOgYLDfIM6g0eGRIMGYYphrsNOwzHjYyNoo02GTUbDRmrGrONc43rjZ+YkE08TFaY1JjcM8WaMkzTTPea3jaDzRzMUswqzG6Zw+aO5gLzveZd8zHznecL59fM77EgWTAtsizqLfosaZZBlhssmy1fWxlYxVltt+qw+mbtYJ1ufcD6sY2yTYDNBptWm7e2ZrZc2wrbe3ZkO1+7tXYtdm/sze359vvsHzhQHBY6bHJod/jq6OQodmxwHHYycEpwqnTqYVAZIYxixlVnjLOX81rnM86fXBxdJC7HXf50tXBNcz3sOrTAeAF/wYEF/W56bhy3arded7p7gvuP7r0euh4cjxqP5576njzPWs9BpikzlXmE+drL2kvsdcprnOXCWs1q80Z5+3kXenf6KPtE+pT7PPPV8032rfcd9XPwW+XX5o/xD/Tf7t/D1mJz2XXs0QCngNUBlwJJgeGB5YHPg8yCxEGtC+GFAQt3LHyyyHCRcFFzMAhmB+8IfhpiHLIi5JdQbGhIaEXoizCbsLywjnBK+LLww+EfIrwitkY8jjSJlEa2RylExUfVRY1He0eXRPfGWMWsjrkRqx4riG2Jw8VFxdXGjS32Wbxr8UC8Q3xBfPcS4yU5S64tVV+avvTsMoVlnGUnEjAJ0QmHE75wgjk1nLFEdmJl4iiXxd3NfcXz5O3kDfPd+CX8wSS3pJKkoWS35B3JwykeKaUpIwKWoFzwJtU/tSp1PC047WDaZHp0emMGPiMh47RQWZgmvLRce3nO8i6RuahA1LvCZcWuFaPiQHFtJpS5JLNFQkVE0U2pifQ7aV+We1ZF1sfsqOwTOUo5wpybK81Wbl45mOub+9Mq9CruqvY83bz1eX2rmaur10BrEte0r9Vfm792YJ3fukPrievT1v+6wXpDyYb3G6M3tuZr5a/L7//O77v6AvkCcUHPJtdNVd+jvxd837nZbvOezd8KeYXXi6yLSou+FHOLr/9g80PZD5NbkrZ0bnXcum8bdptwW/d2j+2HSpRKckv6dyzc0bSTvrNw5/tdy3ZdK7UvrdpN3C3d3VsWVNayx2DPtj1fylPK71d4VTRWalZurhzfy9t7Z5/nvoYqraqiqs8/Cn58UO1X3VRjVFO6H7s/a/+LA1EHOn5i/FRXq15bVPv1oPBg76GwQ5fqnOrqDmse3loP10vrh4/EH7l91PtoS4NFQ3UjrbHoGDgmPfby54Sfu48HHm8/wTjRcNLwZOUpyqnCJqhpZdNoc0pzb0tsS9fpgNPtra6tp36x/OXgGd0zFWdVzm49RzyXf27yfO75sTZR28iF5Av97cvaH1+MuXjvUuilzsuBl69e8b1ysYPZcf6q29Uz11yunb7OuN58w/FG002Hm6d+dfj1VKdjZ9Mtp1stt51vt3Yt6Dp3x+POhbved6/cY9+7cX/R/a7uyO4HPfE9vQ94D4Yepj988yjr0cTjdU8wTwqfKj4tfab5rOY3098aex17z/Z59918Hv78cT+3/9Xvmb9/Gch/QX5ROqgzWDdkO3Rm2Hf49svFLwdeiV5NjBT8ofRH5WuT1yf/9Pzz5mjM6MAb8ZvJt8Xv1N4dfG//vn0sZOzZh4wPE+OFH9U+HvrE+NTxOfrz4ET2F9yXsq+mX1u/BX57MpkxOSniiDnTUgCFDDgpCYC3BwEgxwJAuQ0AcfGMlp42aEb/TxP4Tzyjt6fNEYDaNgCmZF8QMletQ6SsJ6JJkDElhyI8AWxnJxuzundao09ZkAUACqWsaFufR++Wgn/ajH7/S93/nMFUVnvwz/lfXoMDSY4CsBwAAACKZVhJZk1NACoAAAAIAAQBGgAFAAAAAQAAAD4BGwAFAAAAAQAAAEYBKAADAAAAAQACAACHaQAEAAAAAQAAAE4AAAAAAAAAkAAAAAEAAACQAAAAAQADkoYABwAAABIAAAB4oAIABAAAAAEAAAGmoAMABAAAAAEAAACeAAAAAEFTQ0lJAAAAU2NyZWVuc2hvdO7pUykAAAAJcEhZcwAAFiUAABYlAUlSJPAAAAHWaVRYdFhNTDpjb20uYWRvYmUueG1wAAAAAAA8eDp4bXBtZXRhIHhtbG5zOng9ImFkb2JlOm5zOm1ldGEvIiB4OnhtcHRrPSJYTVAgQ29yZSA2LjAuMCI+CiAgIDxyZGY6UkRGIHhtbG5zOnJkZj0iaHR0cDovL3d3dy53My5vcmcvMTk5OS8wMi8yMi1yZGYtc3ludGF4LW5zIyI+CiAgICAgIDxyZGY6RGVzY3JpcHRpb24gcmRmOmFib3V0PSIiCiAgICAgICAgICAgIHhtbG5zOmV4aWY9Imh0dHA6Ly9ucy5hZG9iZS5jb20vZXhpZi8xLjAvIj4KICAgICAgICAgPGV4aWY6UGl4ZWxZRGltZW5zaW9uPjE1ODwvZXhpZjpQaXhlbFlEaW1lbnNpb24+CiAgICAgICAgIDxleGlmOlBpeGVsWERpbWVuc2lvbj40MjI8L2V4aWY6UGl4ZWxYRGltZW5zaW9uPgogICAgICAgICA8ZXhpZjpVc2VyQ29tbWVudD5TY3JlZW5zaG90PC9leGlmOlVzZXJDb21tZW50PgogICAgICA8L3JkZjpEZXNjcmlwdGlvbj4KICAgPC9yZGY6UkRGPgo8L3g6eG1wbWV0YT4K1ENTGAAAABxpRE9UAAAAAgAAAAAAAABPAAAAKAAAAE8AAABPAAAWEpRgJuUAABXeSURBVHgB7J13YBRV18ZPqKGEHggERKWrgFKVIESKAp8oNYIgUpSOIogNfBGkqRQBKSJFxYgNBAFfahAIRaVKNVITAwFCSyMBkv3Omc3szuzOJiTZzQ68z/yRmXvnljO/e3OfuWXu+lj4IBwgAAIgAAIgYBICPhAmk5QEzAABEAABEFAIQJhQEUAABEAABExFAMJkquKAMSAAAiAAAhAm1AEQAAEQAAFTEYAwmao4YAwIgAAIgACECXUABEAABEDAVAQgTKYqDhgDAiAAAiAAYUIdAAEQAAEQMBUBCJOpigPGgAAIgAAIQJhQB0AABEAABExFAMJkquKAMSAAAiAAAhAm1AEQAAEQAAFTEYAwmao4YAwIgAAIgACECXUABEAABEDAVAQgTKYqDhgDAiAAAiAAYUIdAAEQAAEQMBUBCJOpigPGgAAIgAAIQJhQB0AABEAABExFAMJkquKAMSAAAiAAAhAm1AEQAAEQAAFTEYAwmao4YAwIgAAIgACECXUABEAABEDAVAQgTKYqDhgDAiAAAiAAYUIdAAEQAAEQMBUBCJOpigPGgAAIgAAIQJhQB0AABEAABExFAMJkquKAMSAAAiAAAhAm1AEQAAEQAAFTEYAwmao4YAwIgAAIgACECXUABEAABEDAVAQgTKYqDhgDAiAAAiAAYUIdAAEQAAEQMBUBCJOpigPGgAAIgAAIQJhQB0AABEAABExFAMJkquKAMSAAAiAAAhAm1AEQAAEQAAFTEYAwmao4YAwIgAAIgACECXUABEAABEDAVAQgTKYqDhgDAiAAAiAAYUIdAAEQAAEQMBUBCJOpigPGgAAIgAAIQJhQB0AABEAABExFAMJkquKAMSAAAiAAAhAm1AEQAAEQAAFTEYAweak4LKmpdOt0JBWo+oCXLEC2IAACIGBOAhAmb5WLxULXZi+kvMWLkV+vECIfH29ZgnxBAARAwFQEIExeLI7bl69Q9CPPUMmJb1CxPt0hTl4sC2QNAiBgHgIQJi+WhSUtjaKbdaTUk+eo9LxxVLRDOy9ag6xBAARAwBwEIExeLofY9yZQ4pJVihUB67+kgnUe9rJFyB4EQAAEvEsAwuRd/hS3ZBldfW+61QqeZgrcu5rylQ/wslXIHgRAAAS8RwDC5D32Ss7x36+iK8Mn2KzIU64EVdy9mnx8fW1+uAABEACB/yUCECYvl3b8t8vpysgpOisKd2xFZeZM4oV6WKmnAwMHCIDA/wQBCJOXi/nq1LkUN22JkxXlw0KpQK3qTv7wAAEQAIF7nQCEyYslbOFvmS6GvErJ4QedrCjUNoj8F81Ar8mJDDxAAATudQIQJi+WsOXGDYqs2YLo5m1nK3gU775T4TzXVND5HnxAAARA4B4mAGHyYuHeCP+dLnYd6tKCwH1YoecSDm6AAAjcswQgTF4qWhnGi3muN93cc9SlBeW3LKMCNau6vI8bIAACIHAvEoAwealUUw4cppi2fTLMvcKunyj//ZUzDIObIAACIHCvEYAweaFELbdvU/STvBXRmZgMc68UEUZ5/PwMw0iPC8vJDdHAEwRA4C4nAGHK7QJkQbny0WyKn7k0w5wLPFaDAtYudRIfy82blBS2nQo//RT55MmTYRq46VkC8nJw69ZtunLlGkX8c4bCt/9JnTu3oRo1HnRbxmlpFkpOTqbz5y/RX38dpz17D9G4D16nfPnyuS0PeY7k5BSKuRBLhw9H0K6de+j991+jQoXwkbfbICOhLBGAMGUJV84DJ23dQZe6Dc80obI/fUaFghrrwqXFxdO5Vt2ozKxx5Pt4A909ODxLQCdCEWfojz8PUvi2P2jf/qMUH5fAmVs/hl75y+fUvFmjbBkjedy4kUznzl+kw4ciKDz8T9q5Yx8dO3aS07PY8oi58DsVLFgg23koIhRziY4c/YfT30s7wvfSob/+VnIgtkGOs1HhVKxY0WzlgUggkFMCEKacEsxC/JSjf1NMy56ZxshbrSIF/rZc1yNKS0igc8EhlHYljipFbCWffHkzTcfdAaThdHXc68OKabwTfP36z9GZ09GuECj+a39dRE2a1MswjKubBw8eo+Bm2p8/sYuRGqdQoYJ05uw2KlAge8J09mw0PVr3WTU5l+fIqO3k5wdhcgkINzxKAMLkUbz2xG+diaToJzrxe3Xm2wyVW7uQfOvVtUW28HDR+bY96NaRU1S4Wxvynz7eY7/dJOIzb/63dOrkWRZGq615eGukxPgbFJ+YQHl8nIcP0zhOkcKFyL9saapQoRxVq/4AVa16HwWU8+cGNL/tOe7mCxGmJx7vTBHcW9IdItaaraNyIkyHDv1NzZ7spkte21OSGzkVpqio81SnttHPq+hFEMLkUAxw5ioBCFMu4FZ+ELDhc0Q3UpTcLDxo4kqgCtSpRgHrQu1zS9zwxY6ZTImLf1bilhg7hIoP7O0xq0WY2rXrS7t3HTDIQ9946QM43/PzK0xdurShQYNfYqGqbH8mfcS7wiVcbt9OpYsXL9P69dto5IiJbDcLtxuFSfJISkqmEyfO0NRPFtKaNWFObHIqTJKHDOWdPBVJn88PpW+W/uKUh3hAmAyxwDOXCECYPAxaFitEB3eh1NPn7yinMl9/TEVaP2ULe+vUGToX1NXmLvZ2Pyo5fKDN7YkL6R3IJPgnn3xBa9ds4bZXREd/yBzHF4smK3MdkZHn6ffd+2jVyk3KYgB9SKvr5d4d6eOP370nelC3bt2icmUba7jYRTknPSYtt/DwPdT+2Ve1Xsp1ToVJm+Dx4ye5F9jF7qURWQiTHQuucp8AhMmDzKVBj339fUr6cb1hLkY9p0rHNlKeEiWU8BL/Yp/hlLx+py2+b9O6VPaHL3Kl9yH5v9RzJK1du8WWv3pRvHhROnV6K+XRrAyUt/3pMxbRNH7bNzqCn2pMy5fP1cUxCmd2P1mgEFihiUaY7Ba7S5g2h+2iLp0Gc8Isejbd88nxUJ7dUqKDB49TcHOe05JDFSXlLD2mcMwxWcngrxcIQJg8CD2Rl3XH9niDc8h8XknM8PErRJWObCaf/NZ5GeltRVZrrt9Lj5Oq9Lfr75vc/ThDB4+l0G8dh3ssJML0z4ktlD/dVjVfEbN+/d6hn1dsUL105xUr59FTwY/r/O42R+4Kk9CxKZMHhEnmtLT105oXekx3W628t+yFMHmoPC387UnUQ63Ikj6vdCfZOApTWkIiRVULdopa6qO3yK+XfXjPKYAbPQYOHEPff7fWKUWrMIU5CZME1E/i2xtVudelaxtasODu/q0pY2GyPqf7e0xCzX64cyhP12OyZ6FcQZgcgMCZqwQgTB7CfX3eEro2fm6WU694dCPlLZk+lCe7jz/YzCkNnyK+VOnwxlz5lVudMKnDPWxRRsIUe/kqVavSwsluefMPalqfVq9emCtDkQYGuMXLLkxpnJ62t0HkNmHavJO6dB7iZK/7hcmxx2TNEsLkhB4euUgAwuQB2JYUHoKrGUyUfCvLqZdbOZ98G9dX4ll4EUJ0o2cpNfqSUzp+Q16kUmNkmNCzh06YNFllJEyXLl2h6tVaakKnX3KnonlwQ/p55ed3JEwyLJiQmEQXYmIpmZnm5fmsUqWKU+nSJXK884GkLavTYmOvUnx8IsmSd1/fAlSyZHEqzh+W5s2b16WNdmGSXpL+cJsw2eaY9Ok7CpM8h9gTw4yS+Jw/fz5emFGaXxz8XNqvpujOHlMKl4+sWIyLl4+NifyKFiF//1LMtGCmdqj25PZZ2Mm86MWLsZTIZ1n1L589lClTiooUKWRau3ObkzfygzB5gHryngN0of2r3D9wvSzcVbZFB75Apce+absd+/Z4Svx6tc2tvQhYt4QK1n1E6+X26+wIk2yd01w+FDU4Rozsy9vdDDO4Y/eSBkM+Np00cS5t3BjON/S9ktJlSlC/V16gQQNfpBIlitkj3sGVLPn+bevvNG/ONxTGjb/RIeLXqnUQdQ35Pwrij2UdG9esCJM8yxpePBIbe8VlQydhqlSpzN8wNbSZY1/8YPNSLkSYzkZuV4ZQI6POKYyMhlqDmtajiRNHUZ06NVzm6w5hiuEdJGbwgpelX69kgUzRGSvi3rFTa3rrrQFUrdr9untGDuEwZ85SiuLnsm23xX6KYtgiWIdMrU7tNftw2FR+mRs8qCc98EAlWwzHC8nnzz2HaOrHCxzqlz29+vUfpteG96F2bZvn+CXIMX+4MycAYcqcUZZDXJk8k+JnfWMYLzOxylO6GFU8sMG2s8ONXX/SRWV1lnNyPtxIBe5ZQ3lLWYf+nEPk3McmTLoGQhY/+PHiB+M5ptGjp9LcOaGGmR8+so4CA8sZ3hPPmzdv0YjhEwwWXDhGsXCvJh9t2PgV1av3sONNQ/fRoyfo5ZdH0ol/InX3pRHy9y9Nu3bto+vXrW/8agBZFi/DWtqdFoyFydqoOfaYpBEsH/A4paRIo60XWDUPOYsNmzbb68xmp6E8SV+GUK3c163bRr1esr/AKDcN/kzh+cj+/bsZilNOhEmeSxbFDBvygUGuzl4fThhBQ4b0NLRDDS37DpYr28hwtaMaxvVZFRULPfPMk7Tsu1mGeSUkJNHAAaN5pelv6UlZqHbtGtyTb0Qb1m/nD6jP6rKoUfNBWrFiHn84XlbnD4dnCUCY3MxX/mEvvjCAkrfvv6OUjYSqwp5VlD+wghI/LSmJoqo2ty7MckhR4uarEkiBm37w2C/dDhw0mr5f9qtDzq7nmCIjzylb3ggHx2Pm7LG8/Px5wwZDwoootWnTh/bvO2KPKulodlaw37Bf7dv/S4ZvyBJyNX+s2ouXvtsPC7VqGURz53/IQzclFW8ZDnuo1tN8rTZy1tDnzu/SbWiqFyZ9WCNhOnrsBL0+bBzt3as+lz2OCN/gIT1YPLpTQIC/zTznHpPEISrPDWTv3l1o8qR5trB6e+1pqwHmL5hAL3Dvz/HIrjBJ2U6bvogmfjjHMckM3dM/HU192HZXhwytVgwMotTUVA5ifY5JU0bxt1aPKqvZJZ5UhWvX46knr3ZNTLhhmNSW30Lp0Ucfcronc59Ng0KUoWF1efwH44fTsKEvKZ8w3OZd/2VF6S+rNuviyvDo8YhNVIqHeXHkDgEIk5s5yz9tzNPd6ebhk9lOWfuRrSJ0vYZR8qbfXabnG9yAyobOsQ9/uAyZ9Ru2HpMS1d7oyRzTyVO/KXMxckvslN0EWgX3oOvKpqbsqRGU0GUzqG2b5i5FSeL37/8e/fTjOiUn+SPDVvny5+VNUpPYZc9bf01Uq1YVCt/xg8vvo+Q7rJ49RtjSlYvatatT2JZQp2Gat9+eQgs+/45DSO+Gh2J5CyYRJhnOUw+9MKm+1rOjMKl35fnGvD+d5n5m7RUJv/kLJvJ3RI11aavhnYVJvWM9y35877w3iCpWDOBNXk/Qu+98QpG8D57Vbn1YcUX8s1mZ89Heya4wOfKUfRKLFStCCSwUVlHhXPh5teWv5nvy1BaeJzTu4cdxval8X1MOau1Ztm3XnEJDZzjVmbAtu6lzx0Fqkrpz/wEv0JQpbzvFkTJr2LADRf97wRqe7WvEgreOh8O1+zxevXqdqjz4FMn8rtZ++QZPek7asLqM4XArAQiTW3HK/6OFLnTqRym7D2U75WKjeHeHEfbdHRJWrKXLmQyZ+A3rQSXffd3t/zh6YbI/UpGihWjr1u+oME8Wn+R99b4NXUXLlq2xB+BG/b77KlDPXh3plX4hyqICzU2ny238kxHPt++v+Pft15lee60PlS9flsXGR5ncX/vrVho0YIxTPNXDVa9J5mHq1nbuLWwL/55qP1JdjW47X70aRw8+ICshrY2jNER3LkwWXpW32GkTV6kTO3fu42HEUXSZF1t06NCKZn82jooWLWzL1/FCESZpfDXiroZ5Y0QfGjNmqE6Ipbchvc2DB46pwXTnPr0707QZo3X1IzvCZBWPJ5W0GzR8hCazCDz8UFVlzkt6HAd4bvAV7nXYBEBnBdGUj0bRgAEvOvhanRf4Zzdq1mitOIS7vPiULKmfQ7x2LY6q8opPmwBqUhKxP/73JiehF/5G39YZ7QQvYWU1ZBgPpTqyP3BwDVWuHKjJEZeeIgBh8gDZy2MmU8KiFbaUjYbrbDc1F2q4Ii+2pTLTeKPW9MNxWyLV3/FcZulUKtKquaN3jtx6YdL2Wlwn+2SzBvQqD03Jzz/cyU8nyNxCLR5Ck0ZbehxPPPGYrgFVc9q1az9PRvdVnbrz3HnjqXv39jo/aWRat3qJ9u45nK4zVrEpX8Gfv7Vax729PLrwqmP8+Fk0Y/oSxZk1YXJeLi7bO02fsdg27LVg4SRu+NoYPp+av5wN55gYf37eFFd2ZdD24NR40dEX6JGH26jO9LO1zGQhQtS/4bohyawKk/B8882JtHjRchr9/hB6Y3hfQ4bXeait3mPt+XeqrmtsETuIWrRoQj8t5969geCe4BechvU7KL2tz5lTSNd2mvjWl74Xuw/nXs42nb/q+PW/i5W6o7rV8yHeXqtZ05B0p7UOiOP0ma2Gi2fmzgul0e9OVaPbzhMnv8kLK3rY3LjwHAEIkwfY3ulvLrnKunDn1uT/2STb7bS4OIqqYbD82hbCfhHIDW6+MqXtHjm80guTJGZt6DJKVuZNivEkffHiRahunVr0fIfW1LJlE6V3ZRRPVnYFNenKy8jn8yqymkZBFD9pGGULnb/4t4Mcj5GjXqExo4fovCMiTlPjRp3YT2+z9B6mf+q69yUN6/2Vrd+PSQP6b/ROtt3XlvadDuUl8lL3Pr1H8cqvncrihi+/nspzKAG2dDK62BzG3zF1Sn8efm717d26XFwWY1h3B9GmIXxcbSEl4Xbs/JEe4t6NemRVmFJT0yiI923sGtKORrzR11Bc1LRdNe6VKpXnXtUaXW9PjbN7934e7u1LDRrW5o1yv3QKs3HTDgrpMjQ9uLZMuZfTta3hh9vCxN4Dkqj2l5MjR9YbPoOs2uz4vH3EQrXv2fYtaOnSaaoTZw8SgDB5AG5a0g1esMANm/zvZONw/EbJovnQVu1VuUq2QIOaFLDqK7fNNzkLk+TMP3PBw1B//LFSGY6K5x0q5G19w4btPD+zjOeEEp3ME7GaM3ccder0jGFjIL0mmWTO7Bg79lOaNfMrp2Ayt/DRR+/o/MeNm0mfzljCfva3ZAnwybT3eLipqy6so+PDD2fT9GmLFW/5/SNZDacedmFKYy992us2fMliWJdO8Xxbu3b9eKL9khJm8NCeNHGCdvGFmprxWSdMmiCO3zFpbimX67kMuoXIcnyxS9t4Ey3kTXflF3bVwy5M2opqfR5XH9jKEJrsj2jU41HTlfM+XsDSskVPrZdyLUvxZbjNqKzlBxH/M2YazeJhzvLl7QtBJKKspqterYXTknS5J3XrxMkthkOj2qFHCav+U8rK0NBvZ6b/4CI/P7+ApPBwaAovwFn9y0b6bLbMBer5Oa6cVJLDH48Q+H8AAAD//7sz4wQAABimSURBVO2dB3xPZxfHTyIiEglii8SOoGjt0RpR1B6lFDVKa5WWomZQqVl7V1sxWuVVSulLSNRoFa2tQcVO7D1Chrzn3P//7v8KiVefz7mf1n32vc/33P/zu8+6cUvFA/hIdwK3Js6C+7NXPFO5uZdOBp+GoUrep/cfwMXgeorfmSP3sing08D19I7K6917FKz6YZMlCT0qbm6SO3v2bBB75lfIlCmTLntCwmMYP34OLJj/PYbTo2VJLycaOKg7jB7dH4vRh8vxjs70qE6avAimTFpoTaaW0aVLS5g1e6yS/enTVKhZsy2cPHFGCZMdy1ZMg+bNVL5yuPZ8+/ZdTNMTihYLgsWLJ4CXVxYlmuoYULAm2PrprP/5K3DHujVv9oE1vcpg9++roWyZkko5jhxR0XugbZu+piRZvT3h3Lld4OnpaYqjgIsXL0P5VxordpISWe0WNnYADPyku5Lv8OETULfOu4pfa68LF3eBr282TVzanIcO/Q316nYyZfL3zw4nTm6DzJk9THEUQEyNzwaF0XO4etUvhjwWtj+sng2NGr5hiLN49+47DG817GqNU58XS4BqG5uZtYF4D8VKBMFff23QhrI7gwi4odHJOnykM4GnDx7CxRBs/FKeprnkwFPR4O7rq+RLunAR4qu1UfzOHO55skOhA5vBzcP2j99Zfm28Kkz4mKTiD9v62yZh+ud0NDYwmbXJJTc9Uj16DIN1ayNNcdjywE8bFkGdOtXMcZqQJ08S4fLl63D69Dk4cSIWG9x4uHjhCuz54yDcuX1Pk9Li7NqtNcycGaaEU34Sj5SUFCVMdnz/w0xo/FYd2Wv3LP80jA2lbWGyNHLU8N66dVct0xIs+QMK5YODBzfabZTVTAB6YVILyZo1C5w7v9OuMN29ex+KFK6NRal55HIHD+kJI0f2k72QHsKUnJwCN2/ehtjYC5Kdzp+Pg7hLV+DwkRg4/c8F5Vqyw5kwyem05z/+OIT2UgVVG/dm/Zqwes1ck5jJaZYuWwef9B+nF2pk4++fAzp1boH53OWkmjOxkw964FPh6dOnULRoELz/fjs5gs8ZSICFKQPhJuzZD9dsvPU6uqTfkB6Qc2Av3Q/pzrxv4G643EtwlFuNy7duAXhVr6wGPKNLFSZ9AY6EiVLGx1/D3kEjfSZ6B8LeROnSxeG33/9jakxICI4ePQkLF3wHa1HUnjx+ouNAhZFIyIKhLdwoTPfuPYDCQbbfoufNHwcdO7bQZk+T2yxMqgiQcPhl94WrV27YLHPosF4wfFhvm3HawGcVJrq3ggVqaItS3M57TEpScNZjunbtBnzz7X9gacRau3VVSyOXhVFahekxPgOlSze0+TJCz8Lp2GhJZPTXUn3Uw5480fzbqVmzImz65Rs1IbteKgIsTOlsjlR8Q3fTDG892LAZbvYa7dJVvFuFQu65E3T5pWG8VxoAJCa7VIacyLv1m5Bn3gRTwy7Hu3qWhGnlRlM5zoSJ3jDLl2+Cb89XNZdSG/ALl3aDbzYfJe4+9jD7IKdNm7YrYeTI4pkZpk4fAQ0bvA45c2bHYcLZMHeOeYjUKEyWngMKk3xJTW9vwMddYNy4gbrrpMVjFiY195q186FSxbJQtEgdNVC5CUvQ3n1rITi4qCbe7NQLkxrvrMfkSJiMgmzuManXsSdMZNe581bAmNEzkC3CRXGQj74fdYbu3dtCoYD8QENorVp8iFFqPKVLizDRC8iwYZPhq0U/mMqhshZ+FQ7t32lKTrvH55/PhhnTl5ji8+TNBTExW0xD0aaEHPB/IcDClM7Y73/3I/h2eltXauLps3BzYBgk/nlCF654fL3AP3wIZGvbDNzcNUML+MO8OWYKPFi8RknqqsMtpy8EHol87uE8pcdkaIScCRM1KjR/ceTISZu3fOqfKMiTx1+Ke/gwAapUaQmX46/r0gYGFoAdO1dKgiRHTP1yMUwIny97lbNRmB49onkg2z2HsmVLwK7dq009NqUwJw5HwrRl61KoWqU8zncthbFhM22WVKx4IOzduw48PPTzc9rEemGS1RXAmTDdv/8QggJf1xaluDdHRkC1qhUUf1qFiWw6YMBYWLF8PZahF5zIbcugSuVyStnHjp+CN2q1V/yyIy3CRL3n2m90kLPqzpWrlIMtWyLAXft7wRRyb1oefp07dxmMHoUiKh0qR/Jqn0FLPP/7shBgYUpnS5wvUAUCjm4Gj9y5dCWn4ptm8qU4eLL3ECSds4y9e+TJBZ4Vy4NnqRLglsU8mZ1y+w5cKoO9pWc8Ak9Ggbuf3zPmtmRThMlQiivCVKd2BxyaO2XNKTcKlnPs2V/BH3tA1JD06xsGK1f+jOn0jd3GTV9DrVqVdFe2NzRjFCaa+wgJaQA3b9zW5Zc9MSciIX/+PLI3TWezMMl1A2l4iIaJEhOToAwOZdq7/qiwj+DTQT3sXjcq+ndc/KDOB8ldP2fCRPNyZXDoy3Ko90X+07HbIVeuHNY4MMwx6dPa6jFFb/8D3m7dR8kvO3p++A5MnTJc9kpnVfT05boqTElJSVChQlPNy4pcDp0B/o6JhAIF8kpu+R96lj7oORxCypSAwZ/2lII3/BwFXd8bLCfRnFNh6rSR0LMHzxlpoLw0ThamdDYFCVOmwLxQcOtKcM/+fKJwb8lKuD1ius07TMXhITdDQ25MGHBoE3jk0/94jWmc+W0KEzYA2XP42l38QGU6EoYsKMIXLu7GCfzM4Giy3jjcR+VOmrwQ5wwWkdN6WBqsrt1a4eKHMXKgJHgdO3wMm7fsUsLkxp0COuEc05x5Y532mv7BxRf37j6Aijg8J7+Fm4VJvQTNW5Aw0bFj5z4czsL5QjvH4SObICiooM1YfY9JTeJMmP7AxSGN33pfzWB1US9t//6fdD0MVTxMyU1zTNTo16//Hhw8cFyTGNnjf+s3LsaeTRVNuFH01ChXhWnChPkodovVjBrXpMlDoFevjpoQi/Pgwb8htF4naNykDnz/vaW3Ght7HipXamVKSwG+fj64YGMreHtntRkvB1Ldt0TuglfKloRChQrIwXzOQAIsTOkMl4SJDloZl2/NIvAMLv5MV6Afw7X2veDxroPPlJ8yZYwwWYTAWY/p6tUbEBL8JnaC9L0guq8WLetDRMRUqaE/fDgGh/zMjQyJQPzlPbpl2pR3ypSvYOKEBeTUHcYeE0X+tH4rdO86VE1nuXXFH7FsKrRoXl8RHCUCHcSf5kkaN+oGb9avpVv5pQoTrbjU108rTFRG8+Y94bfdB7RFK25aBLJr9yqb8xwWYaLeib58Z8I0ctQ0mD/XPAe3YFE4dGivn4+xCBMNlemvQTdo7DHRIgRaVEF1sgg8pbLkMw7jUcyRIyegTu13yak7/P39cLl4lMOVibTCr3Kllrp8sqdUqaLSwhnjNgWa+6pR/W04deocvP12I/j6m0lSlqSkZChevC7cv/dQLgLP6oNAq/q+WzlTeknSJFCc1PP94ot5MHvWUvjq6wnQrm1jJY4dGUeAhSmd2crCJBfr27cD+PXpBply+dtsAOV0xjMtooir1hxS4vTzLsZ0jvyFjkdCJv+cjpI4jbPZY8JczoRpxIip1r1M5kvsxMa43CvBUsTOXfuhZfMP0I2NnNTokdPS4P3513psVIJ0Bdgbynu/R1uYhkMz2oMEJLDQ65ol42qDJKcb8HFX6NfvPWlll7u7m9TTu4TLnWfPXoIrztZJyY4e+y++KeeXs4AqTFSe/tAKE8VcirsC5crab8wmTR6Kb//mBlwRJumWLTyoPEfCRPdVsmQoPHyQgCnVupKtTp6KAuqpag+lx0TclRcISz6jMNE8YKGAmtrsivuLiYOhb59Oip8cR4+dgtqvm+eYcuXOib2USJxf89Cllz20vL969TaGpeZqXf46sAGKFQuUkyvnnzdGQ5fOn0r+0NAasObHecrvbcrUxTARxUUWUiWT1VGiZBDMmTsOKpQPsS7DTwWao6StCUMGT4QL5+Ol3tXp09vtCpixTPY/HwEWpufjZ8ptFCY5gVediuDdrAF4lgsBd5xbwTEVXGmXBMnYcD05cBjwlwrZ+76v/JhImC5VagJPr96Si0jb2SszBJ38FdzsbMR0tbD+/cfgZPcGU3Jq7GjOwtjA0Bv1RmokbI7rA3zYqz1MmvSZUs+Tp85C9aptsHy18ZEvVqlSWeypzIOcOfykN/UY3M/UulUfuH7tppxEObdu0xC+/Xay4pcdy1f8BAP6jdU0vHKM/pwvf27w8ckK1NOzNOyWeFppFj5+kHK/FEpv0fnzVpXuWF8KwNao5fi2/4oueNy4WTBzRoQlTKqmvq7Hjm+GgIB8ujyOhvLOX9ht6nEQ97Cw6TZXLBoXPcgXiomJhZo12spe3Tkufg8OcXkpYVRnWlRB+8OMB4nllq3LcHsAzpWiwN3Czcm9PxgJ26J+NyRNBZ9s3nDmzA67Dfy8+Stg1IhphnwW78jR/ZS5I20CuqdSwfVxWPgBBuOim3rVcbvBAsVmjx4lQLGidW3eu/a5o3svXCQAaH5Lv5oU4EfcfhGK5fLxYgiwMKUzZ3vCRJdxOC+UyR2Czv2mrKKjhia+XltIPmlZKJHW2/RqVBPyLpmp/DjTmp/S38cvTrRu1Rt3ux/XZLc0qjQ+TxPQ3lm9cPNhKiQ8fgxncAhm1qwI68ZaSkeH+rZPvZqpU4fr5jkcbYS15AegFVj3cOMoDdPQJlVjo0Hp6EsCC3G4qnDhAMiT1x8b0YJSdhriad+uv76RRLYIRi7e7jk4uAjs/m01lq1uIia7UINeq2Y7cz6MC8feQ5/eHXV11PdkzNkqvFoatmLDrv0agkmYrPecOXMm/OLGDvwqg49SUGJiIr7xL4fwz+cqYbJj1pwweK9zK9NzQFyWLV8HAz8Ol5PqzlHRK+C118oo+aje9LJBLx32DlrtSF/IoOelQME8moUL+hz9B7wHbds2gccoKLSST567i4u7ivM4b+kTW31BhQviSsa1Sq+P7kc+Zs2OgM/HzrF6U/F5KQ+RkUuVcili3/4j0KhBVzmLVo/UMDuuIUM/gOHD++jKs5OUg9OJAAtTOoGUi7ncoAMkHouVva6fbfRwbgwbDw+XmnsrcqGOhC7f+kXgVdUyCS+nd+UsCSJujp2/YIXNuQptGSQS9LZ848Ydmxsg5bQ08f7ltBE4l1TN5o97ScQaGPTJF3Jyu+fo7d/Bnbv3oA32mhwd1JCMGKF+zofe9rt0HoQT2Ls12ahhsy9ONLyzbdsKHLJUv8BBvakJ4fOwQf9JU47ZWb3GqzBzVhgElyyi1Fc71KTmUO+BGvWIZV9CieKFpWjzqjw1FzXS9evVgIKB+SH+4hVYtz4S+d9XE1hd9OmlZk3rKfdAwWTfv3ABw/BhU+DP/UcNedT7oYj2HZrC6LD+uOze0ps7e+4SVHy1ORViRaflp+YdPqIPdO3aBkJKOV5RSgsh6OshtOQ7Bb+QUq/uu5pVnPpby5HTD4faSuELUCKkJCfD3XuW+tJL0ZnYi7rE9rYDmMRel8u2h1ZPDhqojmTYTsWh6U2AhSmdid5dGAF3xtF4dtqPwJht4J4Dh/msx5NDx+BK4+6y1+WzR+kiUHDbKv2eKBdzU8NF+38SEp6Yc0gNkrYxMieRQ0qFFINGjd7Aiei3oCyuZjJOVsvp6EyNS3j4HP1GSM218uXLBatWz8Hlw6VxmCUZh59wDuK0vjGickgkp88cDe+0a6zrsViu8RRW4bfWPvtsknUiXG1IKV57fDKwG27s7KO8nctxoaGdNavS7Oen9Jlxj9LV6/sVUaAeyuu13pF6W3J5xtd2YrZnzxopD2007txpENBerhmzRkPUtt24YGQNJDwyD6Up5ViZ0fLtoUN6KfvE1OsBPHj4CAIDammDrG4b9cHySgQHwb5965V6qI27Mb3FPxPvtUuX1lJ6/RAmxmt6qb36vAtjwgagzSzDhcQnJKShzWFa9WZtX9MYTz3mEyfwt4RzhsaDxPXjAeNg184/jVE6Pw0jT58xCsqVK6XUXZeAPRlKgIUpnfEmxV2G+MotnqnUfLjU2Ou18kpe2vt0ueG7kHT8jBLmiiPgwM/gUUCdrHclj5yGhOns2UtAq7DooGEW6nHQUJ2jg4THzy8bZMf/6UxDOsbNj47yW657EQXoFziAb/IJTx5DcImi0Kzlm9igV9LNSdC9LV26FjZv3iEtbCiJPZPGTeri8FolpaGzdy0aOjyEKwGj8SOpx3GP1fUbtyCbjzcUKVIQatetDm/gsmfaX2XroIUMtLzd2TJ9ykv1L1q0kK5Ro6HR8xfi8SOvOL9oOKj364cfTaVFFsT8ypXrsOK79biooLMy10P3fgG/GXjoUAz8jRtYr0vzj6nghXNBIaVLQkUcegtBcXO0/JkE4ISND9sabkfy0j3RkGEgLpGWh9sogj5wu+bHzbBj+164eeu2tJ8oFFe3NW1SDzdD+ylFkU03b9kJy/F7dZSHel51cJ6GPriaF7+8YDyuX78F167fdImvMa/sp3v28fbGId2CunuW4+lM93UeFzRsRbHfh/sKL1++JkXTvqhq1V/DuaQa+DwEpOn51ZbP7ucnwML0/Ax1JdBDf6VFN/zKw9+6cFc83u0aQZ5Z43VvlslXr0FcJRw+ceVjsJ4eUGDLMvAMKenK5V7aNMSQDm1jaOtmXU1nKy+FyfnJ7exalIYPPQGZnzN2rqbTl/7ifC/7/b04Ei/PlViYMsAWtobgHM0HaW8h4CBuis2v3xRL4nS911BI3KtdhKDNBeDTqSn4jxqoGwrUp2AfE2ACTODfQYCFKQPsRG9gxs2xrgqTZ7WykH/tt6b5IRrWS4w5BY9+iYLEA8fg6YNHkBn3+HjVqQFetauDB+1XwiEgPpgAE2AC/3YCLEwZZMHkGzchrpztpa/OLkmbcnOO0u+d0ebhoQctDXYzASYgGgEWpgy06MPoXXADV1Y9y0HzTbm+GIZ/MDCbS9lpQy7O1vJciUu0OBETYAIvMwEWpoy0Dg7pSR9iHTnj2a6Cm279BneHbK0a47wTrrLDj54qw3W0QODJE6BVgA9WbwDPksXBh/5sBg/nPRtrzsUEmMBLQ4CFKYNNQcNu9yN+sPuVcJcvjyLlUbwQuFu/hJxy5y6knLsiZfft1xFyjvyERcllmJyQCTCBl5kAC9MLsk7Cb3vhWtuPHF7N1QUS2kJyL5kE3o1CWZS0UNjNBJjAv5oAC9MLNB/94b9bo6fAox+32ryqq8JE6bKGVoVc08bgEJ/+4582C+ZAJsAEmMC/iAAL0ws2Fg3tJf1zBu5MWwAJG3ak+epeoVUgx5C+4FlB/cN1aS6EMzABJsAEXmICLEz/J+OQQKXcuoN/CHAPPPpvNP7J9cP4Jy7umO7GPV8OyIJfS/ZuVA/3LFWHTPgn23mBgwkTBzABJiAQARYmgYzJVWECTIAJiECAhUkEK3IdmAATYAICEWBhEsiYXBUmwASYgAgEWJhEsCLXgQkwASYgEAEWJoGMyVVhAkyACYhAgIVJBCtyHZgAE2ACAhFgYRLImFwVJsAEmIAIBFiYRLAi14EJMAEmIBABFiaBjMlVYQJMgAmIQICFSQQrch2YABNgAgIRYGESyJhcFSbABJiACARYmESwIteBCTABJiAQARYmgYzJVWECTIAJiECAhUkEK3IdmAATYAICEWBhEsiYXBUmwASYgAgEWJhEsCLXgQkwASYgEAEWJoGMyVVhAkyACYhAgIVJBCtyHZgAE2ACAhFgYRLImFwVJsAEmIAIBFiYRLAi14EJMAEmIBABFiaBjMlVYQJMgAmIQICFSQQrch2YABNgAgIRYGESyJhcFSbABJiACARYmESwIteBCTABJiAQARYmgYzJVWECTIAJiECAhUkEK3IdmAATYAICEWBhEsiYXBUmwASYgAgEWJhEsCLXgQkwASYgEAEWJoGMyVVhAkyACYhAgIVJBCtyHZgAE2ACAhFgYRLImFwVJsAEmIAIBFiYRLAi14EJMAEmIBABFiaBjMlVYQJMgAmIQICFSQQrch2YABNgAgIRYGESyJhcFSbABJiACARYmESwIteBCTABJiAQARYmgYzJVWECTIAJiECAhUkEK3IdmAATYAICEWBhEsiYXBUmwASYgAgEWJhEsCLXgQkwASYgEAEWJoGMyVVhAkyACYhAgIVJBCtyHZgAE2ACAhFgYRLImFwVJsAEmIAIBFiYRLAi14EJMAEmIBABFiaBjMlVYQJMgAmIQICFSQQrch2YABNgAgIRYGESyJhcFSbABJiACARYmESwIteBCTABJiAQARYmgYzJVWECTIAJiECAhUkEK3IdmAATYAICEWBhEsiYXBUmwASYgAgEWJhEsCLXgQkwASYgEAEWJoGMyVVhAkyACYhAgIVJBCtyHZgAE2ACAhH4H694PzW7nfmWAAAAAElFTkSuQmCC;" vertex="1" parent="1">
          <mxGeometry x="360" y="880" width="422" height="158" as="geometry" />
        </mxCell>
        <mxCell id="YY6FUyqzRRnV67kugwKh-13" value="" style="curved=1;endArrow=classic;html=1;rounded=0;exitX=0.189;exitY=0.993;exitDx=0;exitDy=0;exitPerimeter=0;fillColor=#0050ef;strokeColor=#001DBC;strokeWidth=3;" edge="1" parent="1" target="YY6FUyqzRRnV67kugwKh-7">
          <mxGeometry width="50" height="50" relative="1" as="geometry">
            <mxPoint x="317.03999999999996" y="369.02" as="sourcePoint" />
            <mxPoint x="224" y="530" as="targetPoint" />
            <Array as="points">
              <mxPoint x="324" y="480" />
              <mxPoint x="294" y="510" />
            </Array>
          </mxGeometry>
        </mxCell>
        <mxCell id="YY6FUyqzRRnV67kugwKh-14" value="" style="curved=1;endArrow=classic;html=1;rounded=0;entryX=1;entryY=0.25;entryDx=0;entryDy=0;exitX=0.214;exitY=1.007;exitDx=0;exitDy=0;exitPerimeter=0;fillColor=#0050ef;strokeColor=#001DBC;strokeWidth=3;" edge="1" parent="1" target="YY6FUyqzRRnV67kugwKh-8">
          <mxGeometry width="50" height="50" relative="1" as="geometry">
            <mxPoint x="330.03999999999996" y="369.98" as="sourcePoint" />
            <mxPoint x="229.01999999999998" y="683.06" as="targetPoint" />
            <Array as="points">
              <mxPoint x="330" y="500" />
              <mxPoint x="308" y="599" />
            </Array>
          </mxGeometry>
        </mxCell>
        <mxCell id="YY6FUyqzRRnV67kugwKh-15" value="" style="curved=1;endArrow=classic;html=1;rounded=0;exitX=0.214;exitY=1.007;exitDx=0;exitDy=0;exitPerimeter=0;entryX=0.14;entryY=0.231;entryDx=0;entryDy=0;entryPerimeter=0;strokeWidth=3;fillColor=#60a917;strokeColor=#2D7600;" edge="1" parent="1" target="YY6FUyqzRRnV67kugwKh-9">
          <mxGeometry width="50" height="50" relative="1" as="geometry">
            <mxPoint x="357.03999999999996" y="374.98" as="sourcePoint" />
            <mxPoint x="363" y="602" as="targetPoint" />
            <Array as="points">
              <mxPoint x="353" y="522" />
            </Array>
          </mxGeometry>
        </mxCell>
        <mxCell id="YY6FUyqzRRnV67kugwKh-16" value="" style="curved=1;endArrow=classic;html=1;rounded=0;exitX=0.214;exitY=1.007;exitDx=0;exitDy=0;exitPerimeter=0;entryX=0;entryY=0.25;entryDx=0;entryDy=0;fillColor=#60a917;strokeColor=#2D7600;strokeWidth=3;" edge="1" parent="1">
          <mxGeometry width="50" height="50" relative="1" as="geometry">
            <mxPoint x="345.03999999999996" y="373.98" as="sourcePoint" />
            <mxPoint x="375" y="725.5" as="targetPoint" />
            <Array as="points">
              <mxPoint x="330" y="623" />
            </Array>
          </mxGeometry>
        </mxCell>
        <mxCell id="YY6FUyqzRRnV67kugwKh-17" value="" style="curved=1;endArrow=classic;html=1;rounded=0;entryX=0.5;entryY=1;entryDx=0;entryDy=0;strokeWidth=3;fillColor=#0050ef;strokeColor=#001DBC;" edge="1" parent="1" target="YY6FUyqzRRnV67kugwKh-3">
          <mxGeometry width="50" height="50" relative="1" as="geometry">
            <mxPoint x="400" y="379" as="sourcePoint" />
            <mxPoint x="461.20000000000005" y="544.0300000000002" as="targetPoint" />
            <Array as="points">
              <mxPoint x="650" y="560" />
            </Array>
          </mxGeometry>
        </mxCell>
        <mxCell id="YY6FUyqzRRnV67kugwKh-18" value="PoE" style="rounded=0;whiteSpace=wrap;html=1;fillColor=#dae8fc;strokeColor=#6c8ebf;" vertex="1" parent="1">
          <mxGeometry x="660" y="230" width="60" height="20" as="geometry" />
        </mxCell>
        <mxCell id="YY6FUyqzRRnV67kugwKh-19" value="Cat 6" style="rounded=0;whiteSpace=wrap;html=1;fillColor=#d5e8d4;strokeColor=#82b366;" vertex="1" parent="1">
          <mxGeometry x="350" y="470" width="60" height="20" as="geometry" />
        </mxCell>
        <mxCell id="YY6FUyqzRRnV67kugwKh-20" value="Ubiquiti Cloudkey Gen 2" style="rounded=0;whiteSpace=wrap;html=1;fillColor=#dae8fc;strokeColor=#6c8ebf;" vertex="1" parent="1">
          <mxGeometry x="620" y="190" width="150" height="20" as="geometry" />
        </mxCell>
        <mxCell id="YY6FUyqzRRnV67kugwKh-23" value="" style="curved=1;endArrow=classic;html=1;rounded=0;exitX=0.214;exitY=1.007;exitDx=0;exitDy=0;exitPerimeter=0;entryX=0.514;entryY=0.5;entryDx=0;entryDy=0;entryPerimeter=0;fillColor=#6a00ff;strokeColor=#3700CC;strokeWidth=3;" edge="1" parent="1" target="YY6FUyqzRRnV67kugwKh-4">
          <mxGeometry width="50" height="50" relative="1" as="geometry">
            <mxPoint x="388.03999999999996" y="145.48000000000002" as="sourcePoint" />
            <mxPoint x="453.03999999999996" y="367" as="targetPoint" />
            <Array as="points">
              <mxPoint x="373" y="247" />
            </Array>
          </mxGeometry>
        </mxCell>
        <mxCell id="YY6FUyqzRRnV67kugwKh-24" value="Cat 6" style="rounded=0;whiteSpace=wrap;html=1;fillColor=#e1d5e7;strokeColor=#9673a6;" vertex="1" parent="1">
          <mxGeometry x="360" y="232" width="60" height="20" as="geometry" />
        </mxCell>
        <mxCell id="YY6FUyqzRRnV67kugwKh-25" value="PFSense Firewall 1100" style="rounded=0;whiteSpace=wrap;html=1;fillColor=#e1d5e7;strokeColor=#9673a6;" vertex="1" parent="1">
          <mxGeometry x="312.5" y="192" width="155" height="20" as="geometry" />
        </mxCell>
        <mxCell id="YY6FUyqzRRnV67kugwKh-27" value="" style="endArrow=classic;html=1;rounded=0;strokeWidth=3;exitX=0.875;exitY=0.5;exitDx=0;exitDy=0;exitPerimeter=0;entryX=0.225;entryY=0.625;entryDx=0;entryDy=0;entryPerimeter=0;fillColor=#d80073;strokeColor=#A50040;" edge="1" parent="1" source="YY6FUyqzRRnV67kugwKh-1" target="YY6FUyqzRRnV67kugwKh-2">
          <mxGeometry width="50" height="50" relative="1" as="geometry">
            <mxPoint x="400" y="830" as="sourcePoint" />
            <mxPoint x="450" y="780" as="targetPoint" />
          </mxGeometry>
        </mxCell>
        <mxCell id="YY6FUyqzRRnV67kugwKh-28" value="Cat 6" style="rounded=0;whiteSpace=wrap;html=1;fillColor=#f8cecc;strokeColor=#b85450;" vertex="1" parent="1">
          <mxGeometry x="245" y="97.5" width="60" height="20" as="geometry" />
        </mxCell>
        <mxCell id="YY6FUyqzRRnV67kugwKh-31" value="Internet" style="rounded=0;whiteSpace=wrap;html=1;fillColor=#f8cecc;strokeColor=#b85450;" vertex="1" parent="1">
          <mxGeometry x="143" y="80" width="60" height="20" as="geometry" />
        </mxCell>
        <mxCell id="YY6FUyqzRRnV67kugwKh-33" value="Cat 6" style="rounded=0;whiteSpace=wrap;html=1;fillColor=#d5e8d4;strokeColor=#82b366;" vertex="1" parent="1">
          <mxGeometry x="325" y="640" width="60" height="20" as="geometry" />
        </mxCell>
        <mxCell id="YY6FUyqzRRnV67kugwKh-34" value="PoE" style="rounded=0;whiteSpace=wrap;html=1;fillColor=#dae8fc;strokeColor=#6c8ebf;" vertex="1" parent="1">
          <mxGeometry x="210" y="640" width="60" height="20" as="geometry" />
        </mxCell>
        <mxCell id="YY6FUyqzRRnV67kugwKh-35" value="PoE" style="rounded=0;whiteSpace=wrap;html=1;fillColor=#dae8fc;strokeColor=#6c8ebf;" vertex="1" parent="1">
          <mxGeometry x="210" y="530" width="60" height="20" as="geometry" />
        </mxCell>
        <mxCell id="YY6FUyqzRRnV67kugwKh-36" value="Primary NAS - Dell Poweredge R330" style="rounded=0;whiteSpace=wrap;html=1;fillColor=#d5e8d4;strokeColor=#82b366;" vertex="1" parent="1">
          <mxGeometry x="420" y="610" width="270" height="20" as="geometry" />
        </mxCell>
        <mxCell id="YY6FUyqzRRnV67kugwKh-37" value="Backup NAS - Dell Poweredge R330" style="rounded=0;whiteSpace=wrap;html=1;fillColor=#d5e8d4;strokeColor=#82b366;" vertex="1" parent="1">
          <mxGeometry x="425" y="790" width="270" height="20" as="geometry" />
        </mxCell>
        <mxCell id="YY6FUyqzRRnV67kugwKh-38" value="Unifi Wifi 5 Lite AP" style="rounded=0;whiteSpace=wrap;html=1;fillColor=#dae8fc;strokeColor=#6c8ebf;" vertex="1" parent="1">
          <mxGeometry x="60" y="822" width="130" height="20" as="geometry" />
        </mxCell>
        <mxCell id="YY6FUyqzRRnV67kugwKh-39" value="Off-site Data Storage - Bakblaze" style="rounded=0;whiteSpace=wrap;html=1;fillColor=#f8cecc;strokeColor=#b85450;" vertex="1" parent="1">
          <mxGeometry x="435" y="1000" width="270" height="20" as="geometry" />
        </mxCell>
        <mxCell id="YY6FUyqzRRnV67kugwKh-40" value="" style="endArrow=none;dashed=1;html=1;rounded=0;strokeWidth=2;exitX=0.5;exitY=1;exitDx=0;exitDy=0;fillColor=#d80073;strokeColor=#A50040;" edge="1" parent="1" source="YY6FUyqzRRnV67kugwKh-9">
          <mxGeometry width="50" height="50" relative="1" as="geometry">
            <mxPoint x="400" y="830" as="sourcePoint" />
            <mxPoint x="575" y="719" as="targetPoint" />
          </mxGeometry>
        </mxCell>
        <mxCell id="YY6FUyqzRRnV67kugwKh-41" value="" style="endArrow=none;dashed=1;html=1;rounded=0;strokeWidth=2;exitX=0.5;exitY=1;exitDx=0;exitDy=0;fillColor=#d80073;strokeColor=#A50040;startArrow=none;" edge="1" parent="1" source="YY6FUyqzRRnV67kugwKh-48">
          <mxGeometry width="50" height="50" relative="1" as="geometry">
            <mxPoint x="574.5" y="820" as="sourcePoint" />
            <mxPoint x="575" y="930" as="targetPoint" />
          </mxGeometry>
        </mxCell>
        <mxCell id="YY6FUyqzRRnV67kugwKh-42" value="Controlled by Cloudkey" style="rounded=0;whiteSpace=wrap;html=1;fillColor=#dae8fc;strokeColor=#6c8ebf;" vertex="1" parent="1">
          <mxGeometry x="60" y="850" width="130" height="20" as="geometry" />
        </mxCell>
        <mxCell id="YY6FUyqzRRnV67kugwKh-43" value="Unifi PoE 8 Port Switch" style="rounded=0;whiteSpace=wrap;html=1;fillColor=#dae8fc;strokeColor=#6c8ebf;" vertex="1" parent="1">
          <mxGeometry x="90" y="325" width="150" height="20" as="geometry" />
        </mxCell>
        <mxCell id="YY6FUyqzRRnV67kugwKh-44" value="Controlled by Cloudkey" style="rounded=0;whiteSpace=wrap;html=1;fillColor=#dae8fc;strokeColor=#6c8ebf;" vertex="1" parent="1">
          <mxGeometry x="90" y="349" width="150" height="20" as="geometry" />
        </mxCell>
        <mxCell id="YY6FUyqzRRnV67kugwKh-45" value="https://192.168.22.22" style="rounded=0;whiteSpace=wrap;html=1;fillColor=#d5e8d4;strokeColor=#82b366;" vertex="1" parent="1">
          <mxGeometry x="420" y="636" width="270" height="20" as="geometry" />
        </mxCell>
        <mxCell id="YY6FUyqzRRnV67kugwKh-46" value="https://192.168.22.32" style="rounded=0;whiteSpace=wrap;html=1;fillColor=#d5e8d4;strokeColor=#82b366;" vertex="1" parent="1">
          <mxGeometry x="425" y="816" width="270" height="20" as="geometry" />
        </mxCell>
        <mxCell id="YY6FUyqzRRnV67kugwKh-47" value="https://backblaze.com" style="rounded=0;whiteSpace=wrap;html=1;fillColor=#f8cecc;strokeColor=#b85450;" vertex="1" parent="1">
          <mxGeometry x="435" y="1026" width="270" height="20" as="geometry" />
        </mxCell>
        <mxCell id="YY6FUyqzRRnV67kugwKh-48" value="Data Flow" style="rounded=0;whiteSpace=wrap;html=1;fillColor=#f8cecc;strokeColor=#b85450;" vertex="1" parent="1">
          <mxGeometry x="540" y="870" width="70" height="20" as="geometry" />
        </mxCell>
        <mxCell id="YY6FUyqzRRnV67kugwKh-49" value="" style="endArrow=none;dashed=1;html=1;rounded=0;strokeWidth=2;exitX=0.5;exitY=1;exitDx=0;exitDy=0;fillColor=#d80073;strokeColor=#A50040;" edge="1" parent="1" target="YY6FUyqzRRnV67kugwKh-48">
          <mxGeometry width="50" height="50" relative="1" as="geometry">
            <mxPoint x="574.5" y="820" as="sourcePoint" />
            <mxPoint x="575" y="930" as="targetPoint" />
          </mxGeometry>
        </mxCell>
        <mxCell id="YY6FUyqzRRnV67kugwKh-50" value="Data Flow" style="rounded=0;whiteSpace=wrap;html=1;fillColor=#f8cecc;strokeColor=#b85450;" vertex="1" parent="1">
          <mxGeometry x="536" y="680" width="70" height="20" as="geometry" />
        </mxCell>
      </root>
    </mxGraphModel>
  </diagram>
</mxfile>
